<svg viewBox="0 0 180.6 95.3" xml:space="preserve" xmlns="http://www.w3.org/2000/svg" enable-background="new 0 0 180.6 95.3"><path d="M1.7 85.3h5.8v-23l9.1 20c1 2.4 2.5 3.3 5.4 3.3 2.9 0 4.2-.9 5.3-3.3l9-20v23h5.8v-23c0-2.2-.9-3.3-2.8-3.9-4.4-1.3-7.4-.2-8.7 2.8L21.8 81l-8.6-19.8c-1.3-3-4.3-4.1-8.7-2.8-1.9.6-2.8 1.6-2.8 3.9v23zM46.9 66.6h5.8v12.6c0 .7.2 2.3 3.4 2.4h12.7V66.5h5.8v20.7c0 5.1-6.3 6.2-9.2 6.2H47.1v-3.9h18.4c3.7-.4 3.3-2.3 3.3-2.9v-1.5H56.4c-5.8 0-9.5-2.6-9.5-5.5 0-.3.2-12.9 0-13zM172.3 51.9c-3.6-.1-6.3.3-8.7 1.2-.7.3-1.7.3-1.8 1.1.4.4.4.9.7 1.4.5.9 1.5 2.1 2.3 2.7.9.7 1.9 1.4 2.9 2.1 1.7 1.1 3.7 1.7 5.4 2.8 1 .6 2 1.4 2.9 2.1.5.4.8.9 1.4 1.2v-.1c-.3-.4-.4-1-.7-1.4-.4-.4-.9-.8-1.3-1.3-1.3-1.7-2.9-3.3-4.6-4.5-1.4-1-4.6-2.3-5.1-4l-.1-.1c1-.1 2.1-.4 3.1-.7 1.5-.4 2.9-.3 4.5-.7l2.1-.6v-.4c-.8-.8-1.4-1.9-2.2-2.6-2.3-2-4.8-3.9-7.4-5.5-1.4-.9-3.2-1.5-4.6-2.2-.5-.3-1.4-.4-1.7-.8-.8-1-1.3-2.3-1.8-3.4-1.3-2.5-2.5-5.2-3.7-7.8-.8-1.7-1.3-3.5-2.3-5.1-4.6-7.6-9.6-12.2-17.3-16.7-1.7-.9-3.6-1.3-5.7-1.8-1.1 0-2.2-.1-3.3-.2-.7-.3-1.4-1.2-2.1-1.6-2.5-1.6-9.1-5.1-11-.5-1.2 2.9 1.8 5.8 2.8 7.2.8 1 1.7 2.2 2.3 3.3.3.8.4 1.6.7 2.4.7 2 1.4 4.1 2.3 6 .5.9 1 1.9 1.7 2.8.4.5 1 .7 1.1 1.5-.6.9-.7 2.2-1 3.3-1.6 5-1 11.3 1.3 15 .7 1.1 2.4 3.6 4.7 2.6 2-.8 1.6-3.3 2.1-5.6.1-.5 0-.9.3-1.2v.1c.6 1.2 1.2 2.5 1.8 3.7 1.4 2.2 3.8 4.5 5.8 6 1.1.8 1.9 2.2 3.3 2.7v-.1h-.1c-.3-.4-.7-.6-1-.9-.8-.8-1.7-1.8-2.3-2.7-1.9-2.5-3.5-5.3-5-8.1-.7-1.4-1.3-2.9-1.9-4.3-.3-.5-.3-1.3-.7-1.6-.7 1-1.7 1.8-2.1 3-.8 1.9-.9 4.3-1.2 6.7-.2 0-.1 0-.2.1-1.4-.4-1.9-1.8-2.5-3.1-1.3-3.2-1.6-8.3-.4-11.9.3-.9 1.7-3.9 1.1-4.8-.3-.8-1.2-1.3-1.7-2-.6-.8-1.2-1.9-1.6-2.9-1.1-2.5-1.6-5.3-2.8-7.8-.5-1.2-1.5-2.4-2.2-3.4-.8-1.2-1.8-2.1-2.5-3.5-.2-.5-.5-1.3-.2-1.8.1-.4.3-.5.6-.6.6-.5 2.2.1 2.8.4 1.7.7 3 1.3 4.4 2.2.6.4 1.3 1.3 2.1 1.5h.9c1.4.3 3 .1 4.4.5 2.4.8 4.5 1.9 6.4 3.1 5.8 3.7 10.7 9 13.9 15.3.5 1 .8 2 1.2 3 .9 2.2 2.1 4.4 3 6.6.9 2.1 1.8 4.2 3.2 6 .7.9 3.3 1.4 4.6 1.9.9.4 2.3.8 3.1 1.2 1.5.9 3 2 4.5 3 .7.6 3 1.7 3.1 2.6z" fill="#0073a1" class="fill-00678f"></path><path d="M126.8 13.2c-.8 0-1.3.1-1.8.2v.1h.1c.4.7 1 1.2 1.4 1.8.4.7.7 1.4 1 2.1l.1-.1c.6-.4.9-1.2.9-2.2-.3-.3-.3-.6-.5-.9-.3-.5-.9-.7-1.2-1z" fill="#0073a1" class="fill-00678f"></path><path d="M79.1 85.3h16.8c2 0 3.8-.4 5.4-1.1 2.5-1.2 3.7-2.7 3.7-4.8v-4.3c0-1.7-1.4-3.2-4.1-4.3-1.4-.5-3.2-.8-5-.8h-7c-2.4 0-3.5-.7-3.8-2.3v-3.6c.3-1.2.9-1.5 3-1.7h17.1v-3.9H88.9c-2.4 0-3.6.1-4.7.5-3.4 1.1-5 2.8-5 5.8V68c0 2.6 2.9 4.9 7.9 5.4h8.3c1.8.2 2.6.5 3.2 1.2.4.4.4.7.4 1.1v3.4c0 .4-.3.9-.8 1.4s-1.4.8-2.5.8H79.1v4zM141.3 78.5c0 4 3 6.2 9 6.6.6 0 1.1.1 1.7.1h15.2v-3.9h-15.3c-3.4 0-4.7-.8-4.7-2.9v-20h-5.8l-.1 20.1zM108.7 78.7V64.9c0-3.5 2.5-5.7 7.4-6.3.5 0 1.1-.1 1.6-.1h11.1c.6 0 1.1 0 1.7.1 4.9.7 7.3 2.8 7.3 6.3v13.8c0 2.9-1 4.4-3.4 5.4l5.7 5.2h-6.7l-4.6-4.2-4.7.3h-6.2c-1 0-2.2-.1-3.4-.4-4-1.1-5.8-3.1-5.8-6.3zm6.3-.3c0 .2.1.4.1.6.3 1.6 1.8 2.5 4.1 2.5h5.3l-4.8-4.4h6.7l4.2 3.8c.8-.4 1.3-1.1 1.5-1.9V64.7c-.3-1.5-1.8-2.4-4.1-2.4h-8.8c-2.6 0-4.3 1.1-4.3 2.9l.1 13.2zM169.8 85.3h.8V82h1.1v-.7h-3.1v.7h1.2v3.3zm6.5 0h.8v-3.9h-1.2l-1 2.7-1.1-2.7h-1.2v3.9h.8v-3l1.1 3h.6l1.1-3 .1 3z" fill="#ff9500" class="fill-e38d1a"></path></svg>