<svg viewBox="0 0 512 512" xml:space="preserve" xmlns="http://www.w3.org/2000/svg" enable-background="new 0 0 512 512"><path d="M194.005 240.252h105.054c29.216 0 52.529-24.101 52.529-53.414V86.603c0-28.525-24.002-49.871-52.529-54.691-35.214-5.804-73.478-5.509-105.054.097-44.462 7.87-52.527 24.298-52.527 54.693v21.453H246.63v31.959H102.033c-30.591 0-57.349 18.394-65.709 53.315-9.64 40.035-10.033 65.02 0 106.826 7.476 31.085 25.28 53.314 55.872 53.314h36.101v-48.001c-.001-34.723 30.001-65.316 65.708-65.316z" fill="#00417a" class="fill-347ab4"></path><path d="M474.975 209.372c-7.575-30.395-21.935-53.315-52.527-53.315h-39.443v46.626c0 36.199-30.692 66.691-65.71 66.691H212.24c-28.724 0-52.528 24.594-52.528 53.414v100.138c0 28.524 24.788 45.246 52.528 53.413 33.247 9.737 65.215 11.509 105.054 0 26.462-7.675 52.529-23.116 52.529-53.413v-20.997H264.867v-32.417h157.58c30.593 0 41.904-21.346 52.527-53.314 11.018-32.954 10.527-64.628.001-106.826z" fill="#dba800" class="fill-ffca1d"></path><path d="M187.415 89.594c-10.479 0-18.975-8.591-18.975-19.164.094-10.668 8.496-19.259 18.975-19.259 10.385 0 18.976 8.685 18.976 19.259-.001 10.573-8.497 19.164-18.976 19.164zM314.908 460.076c-10.479 0-18.976-8.591-18.976-19.164.095-10.668 8.496-19.259 18.976-19.259 10.385 0 18.976 8.685 18.976 19.259 0 10.573-8.496 19.164-18.976 19.164z" fill="#ffffff" class="fill-ffffff"></path></svg>